<svg width="30.000002" height="30.000000" viewBox="0 0 30 30" fill="none" xmlns="http://www.w3.org/2000/svg" xmlns:xlink="http://www.w3.org/1999/xlink">
	<desc>
			Created with Pixso.
	</desc>
	<defs/>
	<circle id="Ellipse 2300" r="15.000000" transform="matrix(-1 0 0 1 15 15)" fill="#060606" fill-opacity="1.000000"/>
	<path id="icon" d="M11.64 8.22C11.32 7.88 10.79 7.93 10.53 8.33L9.65 9.65C9.22 10.3 8.99 11.07 9 11.85C9 12.47 9.15 13.11 9.46 13.68C11.47 17.31 13.37 19.32 16.71 21.48C17.9 22.25 19.37 22.13 20.47 21.29L21.69 20.35C22.06 20.06 22.1 19.49 21.78 19.15L19.71 16.91C19.47 16.66 19.1 16.61 18.81 16.8C17.85 17.63 16.4 17.55 15.54 16.62L14.01 14.98C13.1 14 13.02 12.5 13.83 11.42C14 11.11 13.96 10.72 13.72 10.46L11.64 8.22Z" fill="#FEFEFE" fill-opacity="1.000000" fill-rule="evenodd"/>
</svg>
